<svg width="139" height="28" viewBox="0 0 139 28" fill="none" xmlns="http://www.w3.org/2000/svg">
<path d="M36.096 13.024V11.952H43.92V13.024H40.344L40.624 12.736V22H39.376V12.736L39.656 13.024H36.096ZM45.6316 11.952H46.8796V16.384H51.8556V11.952H53.0876V22H51.8556V17.456H46.8796V22H45.6316V11.952ZM55.1348 22L58.5908 11.952H60.1108L63.4868 22H62.1748L61.3268 19.424H57.3268L56.4468 22H55.1348ZM57.6468 18.448H61.0068L59.3268 13.472L57.6468 18.448ZM63.346 13.024V11.952H71.17V13.024H67.594L67.874 12.736V22H66.626V12.736L66.906 13.024H63.346Z" fill="#E7EBEE"/>
<path d="M72.9435 6.72727H75.7401L80.6023 18.5994H80.7812L85.6435 6.72727H88.44V22H86.2475V10.9482H86.1058L81.6016 21.9776H79.782L75.2777 10.9407H75.136V22H72.9435V6.72727ZM105.057 14.3636C105.057 15.9943 104.759 17.3963 104.162 18.5696C103.565 19.7379 102.748 20.6378 101.709 21.2692C100.674 21.8956 99.4987 22.2088 98.1812 22.2088C96.8588 22.2088 95.678 21.8956 94.6389 21.2692C93.6048 20.6378 92.7895 19.7354 92.1929 18.5621C91.5963 17.3888 91.298 15.9893 91.298 14.3636C91.298 12.733 91.5963 11.3335 92.1929 10.1651C92.7895 8.99183 93.6048 8.09197 94.6389 7.46555C95.678 6.83416 96.8588 6.51847 98.1812 6.51847C99.4987 6.51847 100.674 6.83416 101.709 7.46555C102.748 8.09197 103.565 8.99183 104.162 10.1651C104.759 11.3335 105.057 12.733 105.057 14.3636ZM102.775 14.3636C102.775 13.1207 102.574 12.0742 102.171 11.2241C101.773 10.369 101.226 9.72266 100.53 9.28516C99.8392 8.84268 99.0562 8.62145 98.1812 8.62145C97.3012 8.62145 96.5157 8.84268 95.8247 9.28516C95.1336 9.72266 94.5867 10.369 94.184 11.2241C93.7863 12.0742 93.5874 13.1207 93.5874 14.3636C93.5874 15.6065 93.7863 16.6555 94.184 17.5107C94.5867 18.3608 95.1336 19.0071 95.8247 19.4496C96.5157 19.8871 97.3012 20.1058 98.1812 20.1058C99.0562 20.1058 99.8392 19.8871 100.53 19.4496C101.226 19.0071 101.773 18.3608 102.171 17.5107C102.574 16.6555 102.775 15.6065 102.775 14.3636ZM108.506 6.72727L112.757 19.1662H112.928L117.179 6.72727H119.67L114.174 22H111.511L106.015 6.72727H108.506ZM124.18 6.72727V22H121.875V6.72727H124.18ZM127.535 22V6.72727H137.111V8.71094H129.84V13.3643H136.611V15.3406H129.84V20.0163H137.2V22H127.535Z" fill="white"/>
<path fill-rule="evenodd" clip-rule="evenodd" d="M19.0854 14.0001C19.0854 12.2126 18.9332 9.81874 18.8073 8.14774C18.7546 7.44869 18.2161 6.89622 17.5262 6.8303C15.8395 6.66915 13.4113 6.4732 11.6068 6.4732C9.8023 6.4732 7.37415 6.66915 5.68745 6.8303C4.99754 6.89622 4.45906 7.44869 4.40636 8.14774C4.28039 9.81874 4.12818 12.2126 4.12818 14.0001C4.12818 15.7876 4.28039 18.1814 4.40636 19.8524C4.45906 20.5515 4.99754 21.1039 5.68745 21.1699C7.37415 21.331 9.8023 21.527 11.6068 21.527C13.4113 21.527 15.8395 21.331 17.5262 21.1699C18.2161 21.1039 18.7546 20.5515 18.8073 19.8524C18.9332 18.1814 19.0854 15.7876 19.0854 14.0001ZM20.597 8.01107C20.7232 9.68568 20.8803 12.1385 20.8803 14.0001C20.8803 15.8616 20.7232 18.3145 20.597 19.9891C20.4785 21.5616 19.2592 22.8189 17.6958 22.9682C16.0051 23.1298 13.5035 23.3334 11.6068 23.3334C9.71015 23.3334 7.20852 23.1298 5.51783 22.9682C3.95444 22.8189 2.73518 21.5616 2.61664 19.9891C2.4904 18.3145 2.33331 15.8616 2.33331 14.0001C2.33331 12.1385 2.4904 9.68567 2.61664 8.01107C2.73518 6.43861 3.95444 5.18131 5.51783 5.03194C7.20852 4.87041 9.71016 4.66675 11.6068 4.66675C13.5035 4.66675 16.0051 4.87041 17.6958 5.03194C19.2592 5.18131 20.4785 6.43861 20.597 8.01107Z" fill="white"/>
<path fill-rule="evenodd" clip-rule="evenodd" d="M25.241 8.41455C25.5056 8.57912 25.6666 8.86984 25.6666 9.18288V18.8173C25.6666 19.1303 25.5056 19.421 25.241 19.5856C24.9764 19.7502 24.6461 19.7651 24.3679 19.6252L19.5815 17.2166C19.2775 17.0636 19.0854 16.7508 19.0854 16.4087V11.5915C19.0854 11.2494 19.2775 10.9366 19.5815 10.7836L24.3679 8.37501C24.6461 8.23501 24.9764 8.24997 25.241 8.41455ZM20.8803 12.1497V15.8505L23.8718 17.3558V10.6443L20.8803 12.1497Z" fill="white"/>
</svg>
